<svg xmlns="http://www.w3.org/2000/svg" viewBox="0 0 128 128" role="img" aria-labelledby="title"><title>NFe Agendamento</title><defs><linearGradient id="b" x1="0" y1="0" x2="1" y2="1"><stop offset="0" stop-color="#1465d8"/><stop offset="1" stop-color="#0647a6"/></linearGradient><linearGradient id="y" x1="0" y1="0" x2="1" y2="1"><stop offset="0" stop-color="#ffe000"/><stop offset="1" stop-color="#ffad00"/></linearGradient></defs><path d="M24 10h54l18 18v64a12 12 0 0 1-12 12H24A12 12 0 0 1 12 92V22A12 12 0 0 1 24 10Z" fill="#fff" stroke="url(#b)" stroke-width="8"/><path d="M78 10v18a8 8 0 0 0 8 8h18Z" fill="url(#y)"/><text x="27" y="50" font-family="Arial,Helvetica,sans-serif" font-size="28" font-weight="700" fill="url(#b)">NFe</text><path d="M28 62h34M28 73h28M28 84h22" stroke="#9fb1c7" stroke-width="5" stroke-linecap="round"/><circle cx="83" cy="82" r="28" fill="#fff" stroke="url(#y)" stroke-width="8"/><path d="M83 67v16l10 7" fill="none" stroke="url(#b)" stroke-width="6" stroke-linecap="round" stroke-linejoin="round"/><path d="M101 59c7 5 11 13 11 23" fill="none" stroke="url(#y)" stroke-width="7" stroke-linecap="round"/><path d="m108 64 7-1-1-7" fill="none" stroke="url(#y)" stroke-width="6" stroke-linecap="round" stroke-linejoin="round"/><circle cx="104" cy="101" r="16" fill="url(#y)"/><path d="m96 101 6 6 11-13" fill="none" stroke="#fff" stroke-width="5" stroke-linecap="round" stroke-linejoin="round"/></svg>